<svg xmlns="http://www.w3.org/2000/svg" width="223" height="95" fill="none"><defs/><path fill="#fff" d="M33.3 35c0-1.3-.4-2.2-1.3-2.9-.8-.7-2.3-1.4-4.4-2a43 43 0 01-5.3-2.2c-4.4-2.1-6.6-5.1-6.6-9a8 8 0 011.6-4.9c1.1-1.5 2.7-2.6 4.7-3.4a18 18 0 0113.4.1c2 .9 3.5 2.1 4.5 3.8 1.1 1.6 1.7 3.4 1.7 5.5h-8.2c0-1.4-.5-2.5-1.3-3.2a5 5 0 00-3.5-1.2c-1.5 0-2.6.3-3.5 1a3 3 0 00-1.2 2.5c0 .8.4 1.6 1.4 2.4.9.7 2.6 1.4 5 2.2 2.3.7 4.2 1.5 5.7 2.4 3.7 2.1 5.6 5 5.6 8.8 0 3-1.2 5.3-3.4 7a15 15 0 01-9.3 2.6c-2.7 0-5.3-.5-7.5-1.5s-4-2.4-5-4a10.7 10.7 0 01-1.8-6H23c0 1.8.5 3.1 1.4 4 1 .9 2.5 1.3 4.6 1.3 1.4 0 2.5-.3 3.2-.9a3 3 0 001.2-2.5zM54 32.3V44h-8.2V9.9h13.6c2.6 0 4.9.5 6.9 1.4 2 1 3.6 2.3 4.7 4.1a11 11 0 011.6 6c0 3.4-1.2 6-3.6 8-2.3 2-5.6 3-9.8 3H54zm0-6.3h5.4c1.6 0 2.8-.4 3.6-1.2.9-.8 1.3-2 1.3-3.4 0-1.6-.4-2.9-1.3-3.8-.9-1-2-1.5-3.5-1.5H54v9.9zm38.3 11.5H81L79 44h-8.8L82.7 9.9h7.8L103 44h-8.9l-2-6.4zm-9.4-6.3h7.4l-3.7-11.9-3.7 11.9zm49.8 1.1c-.1 2.4-.8 4.5-2 6.4a11.6 11.6 0 01-4.9 4.2c-2.1 1-4.5 1.5-7.2 1.5-4.5 0-8-1.5-10.6-4.4a18 18 0 01-3.9-12.4V26c0-3.3.6-6.2 1.7-8.7a13.2 13.2 0 0112.7-8c4.1 0 7.4 1.2 10 3.4 2.5 2.1 4 5.1 4.3 9h-8.3c0-2.1-.5-3.6-1.5-4.5-1-1-2.5-1.4-4.5-1.4s-3.6.8-4.5 2.3c-1 1.6-1.5 4-1.5 7.4v2.4c0 3.6.4 6.2 1.3 7.8 1 1.5 2.5 2.3 4.8 2.3 1.9 0 3.3-.4 4.3-1.3s1.5-2.3 1.6-4.3h8.2zm25-2.9h-12.9v8.2h15.3V44h-23.5V9.9H160v6.3h-15.3v7.2h13v6.1zM15.3 71H11v12H2.6V48.9h13.5c4 0 7.2.9 9.5 2.7a9.1 9.1 0 013.4 7.6 11 11 0 01-1.5 5.9c-1 1.6-2.4 2.8-4.5 3.8l7.2 13.7v.4h-8.9l-6-12zM11 64.6H16c1.5 0 2.7-.4 3.5-1.2.8-.8 1.2-2 1.2-3.5 0-1.4-.4-2.6-1.2-3.4-.8-.9-2-1.3-3.5-1.3h-5.2v9.4zm42.4 12H42.1L40 83h-8.8l12.5-34.1h7.8L64.2 83h-8.9l-2-6.4zM44 70.3h7.4l-3.7-11.9L44 70.3zm49.8 1.1c-.1 2.4-.8 4.5-2 6.3A11.6 11.6 0 0187 82c-2.1 1-4.5 1.5-7.2 1.5-4.5 0-8-1.5-10.6-4.4-2.6-3-3.9-7-3.9-12.4V65c0-3.3.6-6.2 1.7-8.7a13.2 13.2 0 0112.7-8c4.1 0 7.4 1.2 10 3.4 2.5 2.1 3.9 5.1 4.2 9h-8.2c0-2.1-.6-3.6-1.5-4.5-1-1-2.5-1.4-4.5-1.4s-3.6.8-4.5 2.3c-1 1.6-1.5 4-1.5 7.4v2.4c0 3.6.4 6.2 1.3 7.8 1 1.5 2.5 2.3 4.8 2.3 1.8 0 3.3-.4 4.3-1.3s1.5-2.3 1.6-4.3h8.2zm25-2.9h-13v8.2h15.4V83H97.7V48.9h23.5v6.3H106v7.2h13v6.1z"/><path stroke="#fff" stroke-width="7" d="M2 91.5h120"/><path fill="url(#paint0_linear)" d="M122 88l75-45-75 52v-7z"/><g clip-path="url(#clip0)"><path fill="#fff" d="M182.2 44.5L171 42.2a1.3 1.3 0 01-.8-2c.1-.1 1.9-2.4 4.9-4.2 4-2.4 8.4-2.8 12.6-1a49 49 0 01-5.5 9.5zM188 65.2c-.3-.3-.5-.7-.4-1.1l.8-11.4c0-.5 10.5-3 10.6-2.7.5 4.5-1 8.7-4.4 11.8a16.4 16.4 0 01-5.3 3.5 1.3 1.3 0 01-1.2-.1z"/><path fill="#fff" d="M201.8 27.5c-6 .8-11.8 3.4-16.4 7.4-2 2-4 4.6-5.5 7.5-1 1.8 7.9 13.6 9.9 13 4-.8 7.8-2.5 11.2-4.9 3.8-2.8 6.8-6.9 9.1-12a75 75 0 00-8.3-11z"/><path fill="#DFDFDF" d="M177.6 47.4l-1.2.8c-4.7 3.6-5.7 10-5.8 10.4a1.3 1.3 0 00.2 1 1.3 1.3 0 00.9.4c.3 0 6.8.8 11.5-2.8l1.1-.9c.5-.5-6.1-9.2-6.7-8.9z"/><path fill="#fff" d="M180 42.1l-4.1 3.2c-.3.2-.5.5-.5.8 0 .3 0 .7.2 1l8.5 11.2c.2.3.5.5.9.5.3 0 .6 0 .9-.2l4.2-3.2-10-13.3zM193.7 42.2a3.9 3.9 0 01-.3-4.2 3.8 3.8 0 013.9-1.9 3.9 3.9 0 012.5 1.5c.6.9.9 1.9.8 2.9a3.8 3.8 0 01-4.3 3.2c-1-.1-2-.6-2.6-1.5z"/><path fill="#fff" d="M192.7 43a5.2 5.2 0 01-.3-5.6 5 5 0 015-2.5 5.1 5.1 0 013.4 2c.8 1.1 1.1 2.5 1 3.8A5 5 0 01196 45c-1.4-.2-2.6-1-3.4-2zm2.5-5c-.5.3-.9 1-1 1.6a2.6 2.6 0 002.2 2.9 2.5 2.5 0 002.3-4c-.4-.6-1-1-1.6-1-.7-.2-1.4 0-1.9.4zM212 27.2c-.1 0-4.5-.5-10.2.3l8.3 11a40.8 40.8 0 003-10.3 1.3 1.3 0 00-1-1z"/></g><defs><linearGradient id="paint0_linear" x1="197" x2="122" y1="43" y2="95" gradientUnits="userSpaceOnUse"><stop stop-color="#fff" stop-opacity="0"/><stop offset=".2" stop-color="#fff" stop-opacity=".2"/><stop offset="1" stop-color="#fff"/></linearGradient><clipPath id="clip0"><path fill="#fff" d="M0 0h32.9v53.1H0z" transform="rotate(52.9 86.9 211.4)"/></clipPath></defs></svg>