<svg xmlns="http://www.w3.org/2000/svg" width="514" height="364"><defs/><path fill="#607d8b" d="M314 143l49-128a11 11 0 00-10-15h-41c-19 0-36 9-45 26l-68 106"/><path fill="#eceff1" d="M33 235c448 0 480-34 480-75V43c0-11-11-22-22-22-23 0-42 15-51 39l-21 62c0 4-4 6-9 6H112c-43 0-86 21-107 58l-4 17"/><path fill="#cdd0d2" d="M16 171h497c-7 36-37 64-75 64H33a32 32 0 01-29-17 32 32 0 011-32l11-15"/><path fill="#546d79" d="M182 171h107c4 0 8 2 10 6l22 58 42 113a11 11 0 01-10 15h-41c-19 0-36-9-45-26l-64-102-30-47a11 11 0 019-17"/></svg>