<svg xmlns="http://www.w3.org/2000/svg" xmlns:xlink="http://www.w3.org/1999/xlink" width="200" height="327" viewBox="73 -133 541 881"><defs/><defs><path id="a" d="M257 444L116 569a21 21 0 01-34-10c0-2-13-48-7-106 8-77 47-139 112-177a820 820 0 0170 168z"/><path id="b" d="M587 573c-7 2-14 1-19-4L427 444c-7-5 64-171 69-168 65 38 104 100 112 177 7 58-6 104-7 106a21 21 0 01-14 14z"/><path id="c" d="M229 12a509 509 0 00-65 293c6 48 20 98 43 148 14 32 256 32 270 0a514 514 0 0046-198c0-79-23-161-68-243-4-7-223-7-226 0z"/><path id="d" d="M250 534l-1 24c0 99 75 177 78 181a21 21 0 0030 0c3-4 78-82 78-181l-1-24c-2-11-183-11-184 0z"/><path id="e" d="M205 449v87a21 21 0 0020 21h233a21 21 0 0021-21v-87H205z"/><path id="f" d="M342 268a63 63 0 110-127 63 63 0 010 127z"/><path id="g" d="M342 289a84 84 0 110-168 84 84 0 010 168zm-42-84a42 42 0 1084 0 42 42 0 00-84 0z"/><path id="h" d="M327-126c-2 2-53 55-98 138h226c-45-83-96-136-98-138a21 21 0 00-30 0z"/></defs><use fill="#ff193d" xlink:href="#a"/><use fill="#ff193d" xlink:href="#b"/><use fill="#cdebfc" xlink:href="#c"/><use fill="#fff261" xlink:href="#d"/><use fill="#001035" xlink:href="#e"/><use fill="#06ccab" xlink:href="#f"/><use fill="#001035" xlink:href="#g"/><use fill="#ff193d" xlink:href="#h"/></svg>