<svg xmlns="http://www.w3.org/2000/svg" width="512" height="512" viewBox="0 0 497 497"><defs/><path fill="#f5dc1d" d="M270 448c-5 0-8-4-8-8v-9h-23c-14 0-25-11-25-25v-27a7 7 0 1115 0v27c0 6 4 10 10 10h31c4 0 7 4 7 8v16c0 4-3 8-7 8z"/><path fill="#ffe940" d="M299 448c-4 0-8-4-8-8v-9h-23c-14 0-25-11-25-25v-27a7 7 0 1115 0v27c0 6 5 10 10 10h31c4 0 7 4 7 8v16c0 4-3 8-7 8z"/><path fill="#7191f0" d="M271 290l-90-123c-4-7-10-12-17-16L0 54c18 38 43 72 74 100l25 22c21 19 37 44 44 72l18 63z"/><path fill="#6084f0" d="M181 167c-4-7-10-12-17-16L0 54l14 27 119 71c7 4 13 9 18 15l90 124-82 15 2 5 110-20z"/><path fill="#ebf9ff" d="M368 202l49-44c34-31 61-67 80-109L320 155c-8 4-14 10-19 17l-85 116c-33-4-61-6-74-3-25 4-45 22-47 47-2 31 22 56 52 56h201c14 0 28-6 38-17l7-8c8-8 19-13 30-13h45c0-13-9-23-21-26l-117-20 20-74c3-11 9-21 18-28z"/><g fill="#d7effa"><path d="M330 304l20-74c3-11 9-21 18-28l49-44c34-31 61-67 80-109l-59 35c-17 28-37 52-61 74l-49 44c-9 7-15 17-18 28l-19 69zM353 363l-7 8a52 52 0 01-38 17h40c14 0 28-6 38-17l7-8c8-8 19-13 30-13h-40c-11 0-22 5-30 13zM176 288l3-4c-16-1-29-1-37 1l34 3z"/></g><path fill="#ffe940" d="M102 362H39c0-15 12-27 27-27h36c8 0 14 6 14 14 0 7-6 13-14 13z"/><g><path fill="#7191f0" d="M257 279l60-88c4-6 9-10 14-15L497 49 320 155c-8 4-14 10-19 17l-85 116 20 1c8 1 17-3 21-10z"/></g><g><path fill="#7191f0" d="M140 332c9 0 9-15 0-15-10 0-10 15 0 15z"/></g></svg>