<svg xmlns="http://www.w3.org/2000/svg" style="isolation:isolate" viewBox="0 0 512 512"><defs/><defs><clipPath id="a"><path d="M0 0h512v512H0z"/></clipPath></defs><g clip-path="url(#a)"><path fill="#607D8B" d="M256 447h48v38c0 15-12 27-27 27h-21v-65z"/><path fill="#546D79" d="M256 447h-48v38c0 15 12 27 27 27h21v-65z"/><path fill="#317C34" d="M256 321H142L67 423a16 16 0 0013 26l128-1h48V321z"/><path fill="#388E3C" d="M256 321h114l75 102a16 16 0 01-13 26l-128-1h-48V321z"/><path fill="#3A8B3E" d="M256 193h-89L89 295a16 16 0 0012 26h155V193z"/><path fill="#43A047" d="M256 193h89l78 102a16 16 0 01-12 26H256V193z"/><path fill="#59A35C" d="M256 1c-5 0-10 3-13 7L131 168a16 16 0 0013 25h112V1z"/><path fill="#66BB6A" d="M256 1c5 0 10 3 13 7l112 160a16 16 0 01-13 25H256V1z"/></g></svg>